<svg width="400" height="400" viewBox="0 0 400 400" fill="none" xmlns="http://www.w3.org/2000/svg">
<g clip-path="url(#clip0_655_24)">
<path d="M117.9 194.849C115.608 190.84 112.393 187.652 108.26 185.29C104.122 182.927 99.2869 181.746 93.7453 181.746C88.2037 181.746 83.0526 182.981 78.7297 185.45C74.4069 187.919 71.0622 191.321 68.6996 195.652C66.3331 199.983 65.1538 204.979 65.1538 210.632C65.1538 216.286 66.3568 220.995 68.7549 225.184C71.1529 229.37 74.5173 232.631 78.8402 234.955C83.1591 237.279 88.1288 238.448 93.7413 238.448C98.0997 238.448 102.052 237.661 105.598 236.082C109.143 234.507 112.137 232.363 114.575 229.641C116.645 227.329 118.211 224.787 119.268 222.012C119.544 221.286 119.004 220.513 118.203 220.513H107.156C106.446 220.513 105.594 221.014 105.231 221.607C103.156 224.997 98.6755 227.138 93.9031 227.138C86.6024 227.138 79.1912 221.63 78.8165 213.644H120.108C120.688 213.644 121.185 213.22 121.24 212.658C121.303 212.066 121.335 209.249 121.335 208.488C121.335 203.404 120.187 198.859 117.9 194.849ZM93.9031 193.416C100.723 193.416 107.242 197.793 108.209 204.379H79.203C80.5559 197.292 87.0835 193.416 93.9031 193.416Z" fill="#22D1AF"/>
<path d="M206.119 162.009H195.616C194.385 162.009 193.387 162.976 193.387 164.168V235.01C193.387 236.203 194.385 237.17 195.616 237.17H206.119C207.35 237.17 208.348 236.203 208.348 235.01V164.168C208.348 162.976 207.35 162.009 206.119 162.009Z" fill="#22D1AF"/>
<path d="M261.218 184.603C258.043 182.707 254.126 181.759 249.472 181.759C245.41 181.759 241.895 182.7 238.779 184.336C233.952 186.87 231.913 190.039 231.913 190.039H231.408V164.168C231.408 162.976 230.41 162.009 229.179 162.009H218.672C217.441 162.009 216.443 162.976 216.443 164.168V235.01C216.443 236.203 217.441 237.17 218.672 237.17H229.179C230.41 237.17 231.408 236.203 231.408 235.01V208.497C231.408 205.489 231.98 202.894 233.127 200.711C234.271 198.529 235.841 196.866 237.837 195.715C239.829 194.572 242.045 193.999 244.483 193.999C248.474 193.999 251.389 195.165 253.235 197.489C255.081 199.817 256.004 203.127 256.004 207.423V235.01C256.004 236.203 257.002 237.17 258.232 237.17H268.629C269.86 237.17 270.858 236.203 270.858 235.01V206.135C270.858 200.837 270.045 196.399 268.42 192.818C266.795 189.236 264.393 186.499 261.218 184.599V184.603Z" fill="#22D1AF"/>
<path d="M287.412 235.604C290.587 237.499 294.503 238.447 299.157 238.447C303.22 238.447 306.734 237.507 309.85 235.871C314.678 233.337 316.879 229.751 316.879 229.751H317.38L318.709 235.003C319.001 236.185 319.707 237.163 320.937 237.163L329.95 237.205C331.18 237.205 332.178 236.238 332.178 235.045V185.197C332.178 184.004 331.18 183.037 329.95 183.037H319.442C318.212 183.037 317.214 184.004 317.214 185.197V211.709C317.214 214.718 316.642 217.313 315.494 219.496C314.351 221.678 312.781 223.341 310.785 224.492C308.793 225.635 306.577 226.208 304.139 226.208C300.147 226.208 297.233 225.042 295.387 222.718C293.541 220.39 292.618 217.08 292.618 212.783V185.197C292.618 184.004 291.62 183.037 290.39 183.037H279.993C278.762 183.037 277.764 184.004 277.764 185.197V214.072C277.764 219.37 278.577 223.807 280.202 227.389C281.827 230.971 284.229 233.708 287.404 235.607L287.412 235.604Z" fill="#22D1AF"/>
<path d="M44.337 164.168V190.043H43.836C43.8084 190.001 42.1558 186.335 37.0244 183.908C33.9953 182.478 30.4889 181.759 26.4973 181.759C21.4014 181.759 16.8025 182.994 12.7045 185.463C8.60252 187.933 5.388 191.3 3.06487 195.558C0.733851 199.817 -0.429688 204.702 -0.429688 210.214C-0.429688 215.726 0.71413 220.416 3.00571 224.712C5.29334 229.005 8.45264 232.373 12.4797 234.807C16.5067 237.239 21.0662 238.458 26.1621 238.458C29.2662 238.458 31.964 238.06 34.2516 237.277C41.2013 234.888 43.836 229.762 43.836 229.762H44.337L45.6188 235.473C45.8397 236.466 46.7469 237.174 47.796 237.174H57.0688C58.2994 237.174 59.2973 236.206 59.2973 235.014V164.168C59.2973 162.976 58.2994 162.009 57.0688 162.009H46.5654C45.3348 162.009 44.337 162.976 44.337 164.168ZM28.7731 226.237C19.6187 226.237 12.1996 218.898 12.1996 209.847C12.1996 200.795 19.6187 193.456 28.7731 193.456C37.9276 193.456 45.3467 200.795 45.3467 209.847C45.3467 218.898 37.9276 226.237 28.7731 226.237Z" fill="#22D1AF"/>
<path d="M171.217 185.194L170.522 190.029H170.022C169.994 189.987 168.341 186.322 163.21 183.894C160.181 182.465 156.674 181.746 152.683 181.746C147.587 181.746 142.988 182.981 138.89 185.45C134.788 187.919 131.574 191.287 129.25 195.545C126.923 199.807 125.76 204.692 125.76 210.204C125.76 215.716 126.904 220.406 129.195 224.703C131.483 228.995 134.642 232.363 138.669 234.798C142.696 237.229 147.256 238.448 152.352 238.448C155.456 238.448 158.153 238.051 160.441 237.267C167.391 234.878 170.025 229.752 170.025 229.752H170.526L171.808 235.463C172.029 236.457 172.936 237.164 173.985 237.164H183.258C184.489 237.164 185.487 236.197 185.487 235.004V185.194C185.487 184.001 184.489 183.034 183.258 183.034H173.449C172.218 183.034 171.221 184.001 171.221 185.194H171.217ZM154.963 226.228C145.808 226.228 138.389 218.889 138.389 209.837C138.389 200.786 145.808 193.447 154.963 193.447C164.117 193.447 171.536 200.786 171.536 209.837C171.536 218.889 164.117 226.228 154.963 226.228Z" fill="#22D1AF"/>
<path d="M352.935 162.004H342.432C341.201 162.004 340.203 162.971 340.203 164.164V235.005C340.203 236.198 341.201 237.165 342.432 237.165H351.704C352.754 237.165 353.657 236.458 353.882 235.464L355.163 229.753H355.664C355.664 229.753 358.299 234.883 365.249 237.268C367.536 238.055 370.234 238.449 373.338 238.449C378.434 238.449 382.998 237.23 387.021 234.799C391.048 232.368 394.207 229 396.495 224.704C398.786 220.407 399.93 215.576 399.93 210.205C399.93 204.693 398.767 199.808 396.439 195.546C394.112 191.288 390.898 187.92 386.8 185.451C382.702 182.981 378.103 181.747 373.007 181.747C369.015 181.747 365.509 182.462 362.48 183.895C357.345 186.322 355.696 189.988 355.668 190.03H355.167V164.16C355.167 162.967 354.17 162 352.939 162L352.935 162.004ZM354.15 209.842C354.15 200.79 361.569 193.451 370.723 193.451C379.878 193.451 387.297 200.79 387.297 209.842C387.297 218.893 379.878 226.233 370.723 226.233C361.569 226.233 354.15 218.893 354.15 209.842Z" fill="#22D1AF"/>
</g>
<defs>
<clipPath id="clip0_655_24">
<rect width="400" height="400" fill="white"/>
</clipPath>
</defs>
</svg>
