<?xml version="1.0" encoding="UTF-8"?> <!-- Generator: Adobe Illustrator 26.0.1, SVG Export Plug-In . SVG Version: 6.00 Build 0) --> <svg xmlns="http://www.w3.org/2000/svg" xmlns:xlink="http://www.w3.org/1999/xlink" version="1.1" id="Layer_1" x="0px" y="0px" viewBox="0 0 136.7 30" style="enable-background:new 0 0 136.7 30;" xml:space="preserve"> <style type="text/css"> .st0{fill:#00B969;} .st1{fill:#4D4D4F;} .st2{fill:#FFFFFF;} .st3{fill:#58595B;} </style> <g id="freemium_9_"> <g id="ld-logo-basic_9_"> <g> <path class="st0" d="M29.8,15c0,8-6.5,14.5-14.5,14.5S0.8,23,0.8,15S7.3,0.6,15.3,0.6S29.8,7,29.8,15"></path> <rect x="14.1" y="9.5" class="st1" width="7.5" height="10.4"></rect> <path class="st2" d="M16.9,19.5H15v-9.2h2c1.9,0,2.8,0.8,3.3,1.5c0.6,0.9,0.8,2.1,0.8,3.1C21.1,17.3,20.2,19.5,16.9,19.5 M23.8,9.7c-2.2-3.1-5.6-3.1-7.5-3.1h-5.6v16.3c1.3,0.2,2.6,0.1,3.9,0.1c0.1,0,0.2,0,0.2,0.1l0,0c0.1,0,0.2,0.1,0.3,0.2h1.6 c6.4,0,8.7-3.8,8.7-8.4C25.4,13,25,11.3,23.8,9.7"></path> <polygon class="st1" points="6.6,6.6 10.8,6.6 10.8,19.5 15,19.5 15.1,23.2 6.6,23.2 "></polygon> <polygon class="st3" points="33.1,6.6 34.8,6.6 34.8,21.6 41.4,21.6 41.4,23.2 33.1,23.2 "></polygon> <path class="st3" d="M53.4,15.8c-0.2-0.8-0.5-1.5-1-2c-0.4-0.5-1-0.9-1.7-1.2s-1.4-0.5-2.2-0.5c-1.2,0-2.3,0.4-3.2,1.2 c-0.7,0.6-1.2,1.4-1.5,2.6L53.4,15.8L53.4,15.8z M53.4,19.2l1.4,0.7c-0.5,0.9-1,1.6-1.6,2.1s-1.3,0.9-2,1.2 c-0.7,0.3-1.6,0.4-2.5,0.4c-2.1,0-3.7-0.7-4.9-2S42,18.8,42,17.1c0-1.6,0.5-3,1.5-4.2c1.3-1.6,2.9-2.3,5-2.3 c2.2,0,3.9,0.8,5.2,2.4c0.9,1.1,1.4,2.5,1.4,4.2H43.7c0,1.4,0.5,2.6,1.4,3.5s2,1.4,3.4,1.4c0.6,0,1.3-0.1,1.9-0.3 c0.6-0.2,1.1-0.5,1.6-0.9C52.4,20.5,52.9,20,53.4,19.2"></path> <path class="st3" d="M63.1,12.1c-0.9,0-1.8,0.2-2.5,0.7c-0.8,0.4-1.4,1-1.8,1.8c-0.5,0.8-0.7,1.6-0.7,2.5s0.2,1.7,0.7,2.5 s1.1,1.4,1.8,1.9c0.8,0.4,1.6,0.7,2.5,0.7s1.7-0.2,2.5-0.7c0.8-0.4,1.4-1,1.8-1.8c0.4-0.7,0.6-1.6,0.6-2.5c0-1.4-0.5-2.6-1.5-3.6 C65.8,12.6,64.6,12.1,63.1,12.1 M69.7,10.9v12.3h-1.6v-2.1c-0.7,0.8-1.5,1.4-2.3,1.8c-0.9,0.4-1.8,0.6-2.8,0.6 c-1.8,0-3.3-0.6-4.6-1.9s-1.9-2.8-1.9-4.6s0.6-3.3,1.9-4.6c1.3-1.3,2.8-1.9,4.6-1.9c1,0,2,0.2,2.8,0.6c0.8,0.4,1.6,1.1,2.2,1.9 v-2.3h1.7V10.9z"></path> <path class="st3" d="M71.9,10.9h1.6v2.2c0.7-0.8,1.4-1.5,2.2-1.9c0.8-0.4,1.7-0.6,2.6-0.6c1,0,1.8,0.2,2.5,0.7s1.3,1.1,1.6,1.9 c0.4,0.8,0.5,2,0.5,3.7v6.4h-1.6v-5.9c0-1.4-0.1-2.4-0.2-2.8c-0.2-0.8-0.6-1.4-1.1-1.8c-0.4-0.5-1.1-0.8-2-0.8 c-1,0-1.9,0.3-2.7,1c-0.8,0.6-1.3,1.4-1.5,2.4c-0.2,0.6-0.2,1.7-0.2,3.4v4.5H72V10.9H71.9z"></path> <path class="st0" d="M88.2,9.7v10.5h1.6c1.6,0,2.7-0.2,3.4-0.5c0.7-0.3,1.3-0.9,1.7-1.7c0.4-0.8,0.7-1.8,0.7-2.9 c0-1.8-0.5-3.1-1.6-4.1c-1-0.9-2.5-1.3-4.6-1.3H88.2z M84.9,6.6h4c2.6,0,4.5,0.3,5.8,0.9s2.3,1.6,3.1,2.9 c0.8,1.4,1.2,2.9,1.2,4.7c0,1.3-0.2,2.5-0.7,3.5c-0.5,1.1-1.1,2-1.9,2.7s-1.7,1.2-2.6,1.5s-2.6,0.4-4.9,0.4h-4.1L84.9,6.6 L84.9,6.6z"></path> <path class="st0" d="M106.7,13.5c-1,0-1.9,0.3-2.6,1s-1,1.5-1,2.6s0.3,1.9,1,2.6s1.5,1,2.5,1s1.9-0.3,2.6-1s1-1.6,1-2.7 s-0.3-1.9-1-2.6C108.6,13.9,107.7,13.5,106.7,13.5 M110.1,11h3.3v12.3h-3.3V22c-0.6,0.6-1.3,1-1.9,1.2c-0.7,0.3-1.4,0.4-2.1,0.4 c-1.7,0-3.2-0.6-4.4-1.9c-1.2-1.2-1.9-2.8-1.9-4.6c0-1.9,0.6-3.5,1.8-4.7c1.2-1.2,2.7-1.8,4.4-1.8c0.8,0,1.5,0.1,2.2,0.4 c0.7,0.3,1.3,0.7,1.9,1.3V11z"></path> <polygon class="st0" points="116.6,6.4 119.9,6.4 119.9,11 121.9,11 121.9,13.6 119.9,13.6 119.9,23.3 116.6,23.3 116.6,13.6 114.9,13.6 114.9,11 116.6,11 "></polygon> <path class="st0" d="M129,13.5c-1,0-1.9,0.3-2.6,1s-1,1.5-1,2.6s0.3,1.9,1,2.6s1.5,1,2.5,1c1,0,1.9-0.3,2.6-1 c0.7-0.7,1-1.6,1-2.7s-0.3-1.9-1-2.6C130.9,13.9,130.1,13.5,129,13.5 M132.5,11h3.3v12.3h-3.3V22c-0.6,0.6-1.3,1-1.9,1.2 c-0.7,0.3-1.4,0.4-2.1,0.4c-1.7,0-3.2-0.6-4.4-1.9c-1.2-1.2-1.9-2.8-1.9-4.6c0-1.9,0.6-3.5,1.8-4.7c1.2-1.2,2.7-1.8,4.4-1.8 c0.8,0,1.5,0.1,2.2,0.4c0.7,0.3,1.3,0.7,1.9,1.3L132.5,11L132.5,11z"></path> </g> </g> </g> </svg> 