<svg width="129" height="30" xmlns="http://www.w3.org/2000/svg" viewBox="0 0 129 30" class="logo  hide-mobile">
    <title>PandaDoc</title>

            <g class="logo__box">
            <path fill="#248567" d="M0 0h30v30H0z"></path>
            <path fill="#248567" d="M0 0h30v15H0z"></path>
        </g>
    
    <path class="logo__symbol" fill="#fff" fill-rule="evenodd" clip-rule="evenodd" d="m22 10.99-.08.04c-.64-.53-1.47-.87-2.53-.87-1.36 0-2.61.49-3.44 1.48l1.29 1.37c.64-.61 1.32-.95 2.19-.95 1.63.04 2.68 1.29 2.68 2.97S21.01 18 19.35 18c-4.16 0-2.99-7.83-8.58-7.83-2.8 0-4.76 2.09-4.76 4.87v8.48h2v-4.53l.08-.04c.64.53 1.47.87 2.53.87 1.36 0 2.61-.49 3.44-1.48l-1.29-1.37c-.64.61-1.32.95-2.19.95-1.63-.04-2.68-1.29-2.68-2.97s1.1-2.97 2.76-2.97c4.16 0 2.99 7.83 8.58 7.83 2.8 0 4.76-2.09 4.76-4.87V6.5h-2v4.49Z"></path>
    <path class="logo__text hide-tablets-desktop" fill="#fff" d="M25.97 2.34h.69c.23 0 .41.05.55.14.14.1.21.25.21.45 0 .16-.04.28-.12.36-.07.08-.17.14-.29.18l.52.84h-.45l-.48-.77h-.21v.77h-.43V2.33Zm.68.91c.23 0 .34-.1.34-.29 0-.11-.03-.18-.09-.23a.44.44 0 0 0-.25-.06h-.25v.58h.25Zm0 1.77c.23 0 .45-.04.65-.12a1.58 1.58 0 0 0 .86-.87c.08-.21.13-.43.13-.68s-.04-.47-.13-.68c-.08-.21-.19-.38-.33-.52-.14-.15-.32-.27-.52-.34a1.764 1.764 0 0 0-1.33 0c-.2.08-.37.19-.51.34-.14.15-.26.33-.34.53-.08.21-.12.43-.12.68s.04.47.13.68c.08.21.2.38.34.52.15.14.32.26.52.34.2.08.42.12.65.12Zm0 .33c-.28 0-.54-.05-.78-.15-.24-.1-.45-.24-.63-.42s-.32-.39-.43-.63c-.1-.24-.15-.5-.15-.79s.05-.54.15-.78c.1-.25.24-.46.42-.64s.39-.32.63-.43c.25-.11.51-.16.79-.16s.54.05.78.15c.25.1.46.24.64.43a2.008 2.008 0 0 1 .57 1.42c0 .28-.05.55-.16.8-.1.24-.24.45-.42.63-.18.17-.39.31-.64.42-.24.1-.5.15-.77.15Z"></path>
    <path class="logo__text" fill="#242424" d="M43.2 8.4H38v13.32h2.18v-5.19h3C46.3 16.53 48 15 48 12.47S46.3 8.4 43.2 8.4Zm0 6h-3v-4h3c1.73 0 2.54.65 2.54 2s-.85 2.04-2.58 2.04l.04-.04Zm12.61-1.77v1.08c-.33-.43-.76-.77-1.25-1-.49-.23-1.02-.34-1.56-.32-.62 0-1.23.13-1.79.37-.57.24-1.08.6-1.5 1.05-.43.45-.76.97-.97 1.55-.22.58-.31 1.19-.28 1.81-.03.62.06 1.24.27 1.82.21.58.54 1.12.97 1.57.43.45.94.81 1.51 1.06.57.25 1.18.38 1.8.38.55.02 1.09-.09 1.59-.32s.93-.58 1.27-1.01v1.09h2v-9.13h-2.05Zm-2.66 7.48c-.38 0-.75-.08-1.1-.23-.35-.15-.66-.37-.91-.65-.26-.28-.45-.6-.58-.96-.13-.36-.18-.73-.15-1.11-.03-.38.01-.76.14-1.12.12-.36.32-.69.58-.97.26-.28.57-.5.92-.66.35-.15.73-.23 1.11-.23s.76.08 1.11.23c.35.15.66.38.92.66s.45.61.58.97c.12.36.17.74.14 1.12.03.38-.02.76-.14 1.11-.12.36-.32.68-.58.96a2.705 2.705 0 0 1-2.02.87ZM68.5 16v5.75h-2v-5.1c0-1.53-.81-2.37-2.14-2.37-.32-.01-.64.04-.93.15-.3.12-.56.29-.79.52-.22.23-.4.5-.51.8-.11.3-.16.62-.13.94v5.07h-2v-9.13h2v1.12c.32-.45.74-.81 1.23-1.05s1.04-.35 1.59-.31c.48-.02.97.05 1.42.23.45.17.86.44 1.21.77.35.34.62.75.8 1.2.18.45.27.93.25 1.41Zm8.71-8v5.71c-.34-.43-.77-.78-1.27-1.01-.5-.23-1.04-.34-1.59-.31-.62 0-1.23.13-1.79.37-.57.24-1.08.6-1.5 1.05-.43.45-.76.97-.97 1.55a4.65 4.65 0 0 0-.29 1.81c-.03.62.06 1.24.27 1.82.21.58.54 1.12.97 1.57.43.45.94.81 1.51 1.06.57.25 1.18.38 1.81.38.55.02 1.09-.09 1.59-.32s.93-.58 1.27-1.01v1.09h2V8h-2Zm-2.66 12.11c-.38 0-.75-.08-1.1-.23-.35-.15-.66-.37-.91-.65-.26-.28-.45-.6-.58-.96-.13-.36-.18-.73-.15-1.11-.03-.38.01-.76.14-1.12.12-.36.32-.69.58-.97.26-.28.57-.5.92-.66.35-.15.73-.23 1.11-.23s.76.08 1.11.23c.35.15.66.38.92.66s.45.61.58.97c.12.36.17.74.14 1.12.03.38-.02.76-.14 1.11-.12.36-.32.68-.58.96a2.705 2.705 0 0 1-2.02.87Zm13.62-7.48v1.08c-.34-.43-.77-.78-1.27-1.01-.5-.23-1.04-.34-1.59-.31-.62 0-1.23.13-1.79.37-.57.24-1.08.6-1.5 1.05s-.76.97-.97 1.55c-.22.58-.31 1.19-.28 1.81-.03.62.06 1.24.27 1.82.21.58.54 1.12.97 1.57.43.45.94.81 1.51 1.06.57.25 1.18.38 1.8.38.55.02 1.09-.09 1.59-.32s.93-.58 1.27-1.01v1.09h2v-9.13h-2Zm-2.66 7.48c-.38 0-.75-.08-1.1-.23-.35-.15-.66-.37-.91-.65-.26-.28-.45-.6-.58-.96-.13-.36-.18-.73-.15-1.11-.03-.38.01-.76.14-1.12.12-.36.32-.69.58-.97.26-.28.57-.5.92-.66.35-.15.73-.23 1.11-.23s.76.08 1.11.23c.35.15.66.38.92.66s.45.61.58.97c.12.36.17.74.14 1.12.03.38-.02.76-.14 1.11-.12.36-.32.68-.58.96a2.705 2.705 0 0 1-2.02.87ZM97.76 8.4h-5.32v13.36h5.32c4.19 0 6.93-2.66 6.93-6.68S102 8.4 97.76 8.4Zm0 11.31h-3.14v-9.26h3.14c3.14 0 4.67 1.89 4.67 4.63s-1.53 4.63-4.67 4.63Zm12.89-7.32c-.94.03-1.86.33-2.63.87-.77.54-1.36 1.3-1.71 2.18a4.82 4.82 0 0 0-.22 2.76c.2.92.67 1.76 1.34 2.42a4.797 4.797 0 0 0 7.34-.8c.52-.79.8-1.71.79-2.65 0-.64-.11-1.28-.36-1.87-.25-.59-.61-1.13-1.07-1.58-.46-.45-1.01-.8-1.61-1.02-.6-.23-1.24-.33-1.88-.31Zm0 7.72c-.38 0-.76-.07-1.12-.21-.35-.15-.68-.36-.94-.64-.27-.28-.48-.6-.61-.96-.14-.36-.2-.74-.18-1.13-.02-.39.03-.78.17-1.15.13-.37.34-.7.61-.99.27-.28.59-.51.95-.67.36-.15.75-.23 1.14-.23s.78.08 1.14.23c.36.16.68.38.95.67.27.28.48.62.61.99s.19.76.17 1.15c.02.39-.04.77-.18 1.13-.14.36-.35.69-.62.97s-.59.49-.95.64c-.36.15-.74.21-1.13.2ZM125 13.83l-1.29 1.37c-.28-.29-.62-.52-1-.68-.38-.16-.78-.24-1.18-.24a2.686 2.686 0 0 0-1.98.88c-.25.28-.45.6-.57.95s-.17.73-.14 1.1a2.71 2.71 0 0 0 .71 2.05c.25.28.56.5.9.65.34.15.71.23 1.08.24a3.26 3.26 0 0 0 2.26-1l1.21 1.4c-.43.48-.96.85-1.56 1.1-.59.25-1.23.37-1.88.35a4.595 4.595 0 0 1-3.46-1.33c-.45-.45-.8-.99-1.03-1.59-.23-.59-.33-1.23-.3-1.87a4.602 4.602 0 0 1 1.34-3.45 4.596 4.596 0 0 1 3.45-1.34 4.23 4.23 0 0 1 3.43 1.41ZM126.31 8.49h.69c.23 0 .41.05.55.14.14.1.21.25.21.45 0 .16-.04.28-.12.36-.07.08-.17.14-.29.18l.52.84h-.45l-.48-.77h-.21v.77h-.43V8.48Zm.69.91c.23 0 .34-.1.34-.29 0-.11-.03-.18-.09-.23a.44.44 0 0 0-.25-.06h-.25v.58h.25Zm0 1.77c.23 0 .45-.04.65-.12a1.58 1.58 0 0 0 .86-.87c.08-.21.13-.43.13-.68s-.04-.47-.13-.68c-.08-.21-.19-.38-.33-.52-.14-.15-.32-.27-.52-.34a1.764 1.764 0 0 0-1.33 0c-.2.08-.37.19-.51.34-.14.15-.26.33-.34.53-.08.21-.12.43-.12.68s.04.47.13.68c.08.21.2.38.34.52.15.14.32.26.52.34.2.08.42.12.65.12Zm0 .33c-.28 0-.54-.05-.78-.15-.24-.1-.45-.24-.63-.42s-.32-.39-.43-.63c-.1-.24-.15-.5-.15-.79s.05-.54.15-.78c.1-.25.24-.46.42-.64s.39-.32.63-.43c.25-.11.51-.16.79-.16s.54.05.78.15c.25.1.46.24.64.43a2.008 2.008 0 0 1 .57 1.42c0 .28-.05.55-.16.8-.1.24-.24.45-.42.63-.18.17-.39.31-.64.42-.24.1-.5.15-.77.15Z"></path>
</svg>