<svg version="1.1" id="Layer_1" xmlns:x="ns_extend;" xmlns:i="ns_ai;" xmlns:graph="ns_graphs;" xmlns="http://www.w3.org/2000/svg" xmlns:xlink="http://www.w3.org/1999/xlink" x="0px" y="0px" viewBox="0 0 536.1 128.3" style="enable-background:new 0 0 536.1 128.3;" xml:space="preserve">
 <style type="text/css">
  .st0{fill:#9CA8BA;}
	.st1{fill-opacity:0.5;}
	.st2{fill:#3195D8;}
 </style>
 <metadata>
  <sfw xmlns="ns_sfw;">
   <slices>
   </slices>
   <sliceSourceBounds bottomLeftOrigin="true" height="128.3" width="536.1" x="5.8" y="5.8">
   </sliceSourceBounds>
  </sfw>
 </metadata>
 <g>
  <path class="st0" d="M192.8,54.2c1.6-3.1,3.8-5.5,6.7-7.2c2.9-1.7,6.5-2.5,10.7-2.5v9.2h-2.4c-10,0-15,5.4-15,16.3v29.2h-8.9V45.5
		h8.9V54.2z M270.4,70.3c0,1.7-0.1,3.5-0.3,5.4h-43c0.3,5.3,2.1,9.4,5.4,12.4c3.3,2.9,7.4,4.4,12.1,4.4c3.9,0,7.1-0.9,9.6-2.6
		c2.6-1.8,4.4-4.2,5.5-7.3h9.6c-1.4,5.2-4.3,9.4-8.6,12.6c-4.3,3.2-9.7,4.8-16.1,4.8c-5.1,0-9.7-1.1-13.7-3.4
		c-4-2.3-7.1-5.5-9.4-9.7c-2.3-4.2-3.4-9.1-3.4-14.7c0-5.6,1.1-10.4,3.3-14.6c2.2-4.2,5.3-7.4,9.3-9.6c4.1-2.3,8.7-3.4,13.9-3.4
		c5.1,0,9.6,1.1,13.5,3.3c3.9,2.2,6.9,5.3,9,9.2C269.3,61,270.4,65.4,270.4,70.3z M261.2,68.4c0-3.4-0.8-6.3-2.3-8.7
		c-1.5-2.5-3.6-4.3-6.2-5.6c-2.6-1.3-5.4-2-8.5-2c-4.5,0-8.4,1.4-11.6,4.3c-3.1,2.9-4.9,6.9-5.4,12H261.2z M305.2,44.6
		c4.6,0,8.7,1,12.2,3c3.5,2,6.1,4.6,7.8,7.6v-9.8h9v54.9c0,4.9-1,9.2-3.1,13c-2.1,3.9-5.1,6.9-9,9c-3.9,2.2-8.4,3.2-13.5,3.2
		c-7.1,0-12.9-1.7-17.7-5c-4.7-3.3-7.5-7.9-8.3-13.6h8.8c1,3.3,3,5.9,6.1,7.8c3.1,2,6.8,3,11.1,3c4.9,0,8.9-1.5,12-4.6
		c3.1-3.1,4.7-7.4,4.7-12.9V89.1c-1.8,3.1-4.4,5.7-7.8,7.8c-3.5,2.1-7.5,3.1-12.2,3.1c-4.8,0-9.1-1.2-13-3.5
		c-3.9-2.4-6.9-5.7-9.1-9.9c-2.2-4.2-3.3-9.1-3.3-14.5c0-5.5,1.1-10.3,3.3-14.4c2.2-4.2,5.3-7.4,9.1-9.7
		C296.1,45.7,300.4,44.6,305.2,44.6z M325.2,72.2c0-4.1-0.8-7.6-2.5-10.6c-1.6-3-3.9-5.3-6.7-6.9c-2.7-1.6-5.8-2.5-9.1-2.5
		c-3.3,0-6.4,0.8-9.1,2.4c-2.7,1.6-4.9,3.9-6.6,6.9c-1.6,3-2.5,6.5-2.5,10.6c0,4.1,0.8,7.7,2.5,10.8c1.6,3,3.8,5.3,6.6,7
		c2.7,1.6,5.8,2.4,9.1,2.4c3.3,0,6.4-0.8,9.1-2.4c2.8-1.6,5-4,6.7-7C324.4,79.8,325.2,76.3,325.2,72.2z M354.8,36.7
		c-1.7,0-3.1-0.6-4.3-1.8c-1.2-1.2-1.8-2.6-1.8-4.3c0-1.7,0.6-3.1,1.8-4.3c1.2-1.2,2.6-1.8,4.3-1.8c1.6,0,3,0.6,4.1,1.8
		c1.2,1.2,1.8,2.6,1.8,4.3c0,1.7-0.6,3.1-1.8,4.3C357.8,36.2,356.5,36.7,354.8,36.7z M359.1,45.5v53.7h-8.9V45.5H359.1z M424.3,70.3
		c0,1.7-0.1,3.5-0.3,5.4h-43c0.3,5.3,2.1,9.4,5.4,12.4c3.3,2.9,7.4,4.4,12.1,4.4c3.9,0,7.1-0.9,9.6-2.6c2.6-1.8,4.4-4.2,5.5-7.3h9.6
		c-1.4,5.2-4.3,9.4-8.6,12.6c-4.3,3.2-9.7,4.8-16.1,4.8c-5.1,0-9.7-1.1-13.7-3.4c-4-2.3-7.1-5.5-9.4-9.7c-2.3-4.2-3.4-9.1-3.4-14.7
		c0-5.6,1.1-10.4,3.3-14.6c2.2-4.2,5.3-7.4,9.3-9.6c4.1-2.3,8.7-3.4,13.9-3.4c5.1,0,9.6,1.1,13.5,3.3c3.9,2.2,6.9,5.3,9,9.2
		C423.2,61,424.3,65.4,424.3,70.3z M415.1,68.4c0-3.4-0.8-6.3-2.3-8.7c-1.5-2.5-3.6-4.3-6.2-5.6c-2.6-1.3-5.4-2-8.5-2
		c-4.5,0-8.4,1.4-11.6,4.3c-3.1,2.9-4.9,6.9-5.4,12H415.1z M439.8,99.8c-1.7,0-3.1-0.6-4.3-1.8c-1.2-1.2-1.8-2.6-1.8-4.3
		c0-1.7,0.6-3.1,1.8-4.3c1.2-1.2,2.6-1.8,4.3-1.8c1.6,0,3,0.6,4.1,1.8c1.2,1.2,1.8,2.6,1.8,4.3c0,1.7-0.6,3.1-1.8,4.3
		C442.8,99.2,441.4,99.8,439.8,99.8z M455.1,72.1c0-5.5,1.1-10.3,3.3-14.4c2.2-4.2,5.3-7.4,9.1-9.7c3.9-2.3,8.3-3.4,13-3.4
		c4.7,0,8.8,1,12.3,3c3.5,2,6,4.6,7.7,7.6v-9.8h9v53.7h-9v-10c-1.8,3.1-4.4,5.7-7.9,7.8c-3.5,2-7.5,3-12.2,3
		c-4.8,0-9.1-1.2-12.9-3.5c-3.9-2.4-6.9-5.7-9.1-9.9C456.2,82.4,455.1,77.5,455.1,72.1z M500.6,72.2c0-4.1-0.8-7.6-2.5-10.6
		c-1.6-3-3.9-5.3-6.7-6.9c-2.7-1.6-5.8-2.5-9.1-2.5s-6.4,0.8-9.1,2.4c-2.7,1.6-4.9,3.9-6.6,6.9c-1.6,3-2.5,6.5-2.5,10.6
		c0,4.1,0.8,7.7,2.5,10.8c1.6,3,3.8,5.3,6.6,7c2.7,1.6,5.8,2.4,9.1,2.4s6.4-0.8,9.1-2.4c2.8-1.6,5-4,6.7-7
		C499.8,79.8,500.6,76.3,500.6,72.2z M530.2,36.7c-1.7,0-3.1-0.6-4.3-1.8c-1.2-1.2-1.8-2.6-1.8-4.3c0-1.7,0.6-3.1,1.8-4.3
		c1.2-1.2,2.6-1.8,4.3-1.8c1.6,0,3,0.6,4.1,1.8c1.2,1.2,1.8,2.6,1.8,4.3c0,1.7-0.6,3.1-1.8,4.3C533.2,36.2,531.8,36.7,530.2,36.7z
		 M534.5,45.5v53.7h-8.9V45.5H534.5z">
  </path>
  <path class="st1" d="M192.8,54.2c1.6-3.1,3.8-5.5,6.7-7.2c2.9-1.7,6.5-2.5,10.7-2.5v9.2h-2.4c-10,0-15,5.4-15,16.3v29.2h-8.9V45.5
		h8.9V54.2z M270.4,70.3c0,1.7-0.1,3.5-0.3,5.4h-43c0.3,5.3,2.1,9.4,5.4,12.4c3.3,2.9,7.4,4.4,12.1,4.4c3.9,0,7.1-0.9,9.6-2.6
		c2.6-1.8,4.4-4.2,5.5-7.3h9.6c-1.4,5.2-4.3,9.4-8.6,12.6c-4.3,3.2-9.7,4.8-16.1,4.8c-5.1,0-9.7-1.1-13.7-3.4
		c-4-2.3-7.1-5.5-9.4-9.7c-2.3-4.2-3.4-9.1-3.4-14.7c0-5.6,1.1-10.4,3.3-14.6c2.2-4.2,5.3-7.4,9.3-9.6c4.1-2.3,8.7-3.4,13.9-3.4
		c5.1,0,9.6,1.1,13.5,3.3c3.9,2.2,6.9,5.3,9,9.2C269.3,61,270.4,65.4,270.4,70.3z M261.2,68.4c0-3.4-0.8-6.3-2.3-8.7
		c-1.5-2.5-3.6-4.3-6.2-5.6c-2.6-1.3-5.4-2-8.5-2c-4.5,0-8.4,1.4-11.6,4.3c-3.1,2.9-4.9,6.9-5.4,12H261.2z M305.2,44.6
		c4.6,0,8.7,1,12.2,3c3.5,2,6.1,4.6,7.8,7.6v-9.8h9v54.9c0,4.9-1,9.2-3.1,13c-2.1,3.9-5.1,6.9-9,9c-3.9,2.2-8.4,3.2-13.5,3.2
		c-7.1,0-12.9-1.7-17.7-5c-4.7-3.3-7.5-7.9-8.3-13.6h8.8c1,3.3,3,5.9,6.1,7.8c3.1,2,6.8,3,11.1,3c4.9,0,8.9-1.5,12-4.6
		c3.1-3.1,4.7-7.4,4.7-12.9V89.1c-1.8,3.1-4.4,5.7-7.8,7.8c-3.5,2.1-7.5,3.1-12.2,3.1c-4.8,0-9.1-1.2-13-3.5
		c-3.9-2.4-6.9-5.7-9.1-9.9c-2.2-4.2-3.3-9.1-3.3-14.5c0-5.5,1.1-10.3,3.3-14.4c2.2-4.2,5.3-7.4,9.1-9.7
		C296.1,45.7,300.4,44.6,305.2,44.6z M325.2,72.2c0-4.1-0.8-7.6-2.5-10.6c-1.6-3-3.9-5.3-6.7-6.9c-2.7-1.6-5.8-2.5-9.1-2.5
		c-3.3,0-6.4,0.8-9.1,2.4c-2.7,1.6-4.9,3.9-6.6,6.9c-1.6,3-2.5,6.5-2.5,10.6c0,4.1,0.8,7.7,2.5,10.8c1.6,3,3.8,5.3,6.6,7
		c2.7,1.6,5.8,2.4,9.1,2.4c3.3,0,6.4-0.8,9.1-2.4c2.8-1.6,5-4,6.7-7C324.4,79.8,325.2,76.3,325.2,72.2z M354.8,36.7
		c-1.7,0-3.1-0.6-4.3-1.8c-1.2-1.2-1.8-2.6-1.8-4.3c0-1.7,0.6-3.1,1.8-4.3c1.2-1.2,2.6-1.8,4.3-1.8c1.6,0,3,0.6,4.1,1.8
		c1.2,1.2,1.8,2.6,1.8,4.3c0,1.7-0.6,3.1-1.8,4.3C357.8,36.2,356.5,36.7,354.8,36.7z M359.1,45.5v53.7h-8.9V45.5H359.1z M424.3,70.3
		c0,1.7-0.1,3.5-0.3,5.4h-43c0.3,5.3,2.1,9.4,5.4,12.4c3.3,2.9,7.4,4.4,12.1,4.4c3.9,0,7.1-0.9,9.6-2.6c2.6-1.8,4.4-4.2,5.5-7.3h9.6
		c-1.4,5.2-4.3,9.4-8.6,12.6c-4.3,3.2-9.7,4.8-16.1,4.8c-5.1,0-9.7-1.1-13.7-3.4c-4-2.3-7.1-5.5-9.4-9.7c-2.3-4.2-3.4-9.1-3.4-14.7
		c0-5.6,1.1-10.4,3.3-14.6c2.2-4.2,5.3-7.4,9.3-9.6c4.1-2.3,8.7-3.4,13.9-3.4c5.1,0,9.6,1.1,13.5,3.3c3.9,2.2,6.9,5.3,9,9.2
		C423.2,61,424.3,65.4,424.3,70.3z M415.1,68.4c0-3.4-0.8-6.3-2.3-8.7c-1.5-2.5-3.6-4.3-6.2-5.6c-2.6-1.3-5.4-2-8.5-2
		c-4.5,0-8.4,1.4-11.6,4.3c-3.1,2.9-4.9,6.9-5.4,12H415.1z M439.8,99.8c-1.7,0-3.1-0.6-4.3-1.8c-1.2-1.2-1.8-2.6-1.8-4.3
		c0-1.7,0.6-3.1,1.8-4.3c1.2-1.2,2.6-1.8,4.3-1.8c1.6,0,3,0.6,4.1,1.8c1.2,1.2,1.8,2.6,1.8,4.3c0,1.7-0.6,3.1-1.8,4.3
		C442.8,99.2,441.4,99.8,439.8,99.8z M455.1,72.1c0-5.5,1.1-10.3,3.3-14.4c2.2-4.2,5.3-7.4,9.1-9.7c3.9-2.3,8.3-3.4,13-3.4
		c4.7,0,8.8,1,12.3,3c3.5,2,6,4.6,7.7,7.6v-9.8h9v53.7h-9v-10c-1.8,3.1-4.4,5.7-7.9,7.8c-3.5,2-7.5,3-12.2,3
		c-4.8,0-9.1-1.2-12.9-3.5c-3.9-2.4-6.9-5.7-9.1-9.9C456.2,82.4,455.1,77.5,455.1,72.1z M500.6,72.2c0-4.1-0.8-7.6-2.5-10.6
		c-1.6-3-3.9-5.3-6.7-6.9c-2.7-1.6-5.8-2.5-9.1-2.5s-6.4,0.8-9.1,2.4c-2.7,1.6-4.9,3.9-6.6,6.9c-1.6,3-2.5,6.5-2.5,10.6
		c0,4.1,0.8,7.7,2.5,10.8c1.6,3,3.8,5.3,6.6,7c2.7,1.6,5.8,2.4,9.1,2.4s6.4-0.8,9.1-2.4c2.8-1.6,5-4,6.7-7
		C499.8,79.8,500.6,76.3,500.6,72.2z M530.2,36.7c-1.7,0-3.1-0.6-4.3-1.8c-1.2-1.2-1.8-2.6-1.8-4.3c0-1.7,0.6-3.1,1.8-4.3
		c1.2-1.2,2.6-1.8,4.3-1.8c1.6,0,3,0.6,4.1,1.8c1.2,1.2,1.8,2.6,1.8,4.3c0,1.7-0.6,3.1-1.8,4.3C533.2,36.2,531.8,36.7,530.2,36.7z
		 M534.5,45.5v53.7h-8.9V45.5H534.5z">
  </path>
  <path class="st2" d="M89.5,41.5V27.2L44.7,1.4L17.2,17.2L4.8,38.6l39.9-23L89.5,41.5z">
  </path>
  <path class="st2" d="M44.7,23.8L0,49.5v31.8l12.2,21.2V56.8L57,31L44.7,23.8z">
  </path>
  <path class="st2" d="M31.6,53.8l-12.4,7.1v51.4l27.8,16h24.3l-39.7-22.9V53.8z">
  </path>
  <path class="st2" d="M38.7,87.1v14.2l44.7,25.8l27.8-16l12.3-21.2l-40.1,23L38.7,87.1z">
  </path>
  <path class="st2" d="M116,25.4v46.4L71.2,97.6l12.4,7.2l44.9-26v-32L116,25.4z">
  </path>
  <path class="st2" d="M96.6,74.8l12.4-7.1V15.9L81.5,0H56.4l40.2,23.2V74.8z">
  </path>
 </g>
</svg>