<svg xmlns="http://www.w3.org/2000/svg" width="116" height="32" viewBox="0 0 116 32" fill="none">
<path d="M0.0117493 15.6676C0.0117493 14.2188 0.0117493 12.7699 0.0117493 11.3211C0.0117493 10.7308 0.0475236 10.1226 0.208508 9.55024C0.476816 8.6201 1.01343 7.86884 1.81835 7.31434C2.85581 6.61674 3.94693 5.99069 5.09171 5.47196C6.50479 4.81014 7.89999 4.91746 9.24153 5.65083C11.0124 6.61674 12.7653 7.61842 14.5182 8.60222C15.6451 9.24616 16.772 9.87221 17.9168 10.5161C18.686 10.9633 19.3299 11.5357 19.7592 12.3227C20.099 12.9309 20.26 13.5927 20.3137 14.2903C20.3316 14.5408 20.3316 14.8091 20.3316 15.0595C20.3316 18.0109 20.3316 20.9623 20.3316 23.9315C20.3316 24.5755 20.2779 25.2194 20.0454 25.8276C19.7055 26.7756 19.0974 27.5447 18.2209 28.0635C17.2908 28.618 16.3606 29.1725 15.3947 29.6554C13.9995 30.3709 12.5864 30.3351 11.1912 29.6196C10.7083 29.3692 10.2432 29.1009 9.77814 28.8326C7.38126 27.4732 4.98438 26.1316 2.56961 24.7722C1.8899 24.3966 1.29963 23.9315 0.852446 23.3055C0.333718 22.59 0.0654107 21.7851 0.0475236 20.9086C0.0296364 20.0858 0.0296364 19.263 0.0296364 18.4223C-0.00613792 17.51 -0.0061379 16.5799 0.0117493 15.6676ZM16.307 28.2244C16.4858 28.1708 16.5395 28.0635 16.5395 27.9025C16.5395 27.2943 16.5395 26.6683 16.5395 26.0601C16.5395 25.6487 16.3606 25.3446 15.985 25.13C13.8385 23.9136 11.6742 22.6973 9.52772 21.4989C9.24153 21.3379 8.95533 21.1948 8.66914 21.0159C7.75689 20.4435 7.05929 19.6565 6.66578 18.6369C6.41536 17.9751 6.34381 17.2954 6.34381 16.5978C6.34381 14.2546 6.34381 11.8935 6.34381 9.55024C6.34381 9.28193 6.34381 9.01362 6.34381 8.72743C6.34381 8.36968 6.16494 8.11926 5.84297 7.94039C5.30635 7.63631 4.76974 7.35012 4.23312 7.04603C4.09002 6.97449 3.94693 6.92082 3.76805 6.83139C3.76805 6.97449 3.76805 7.08181 3.76805 7.18913C3.76805 10.3015 3.76805 13.4139 3.78594 16.5262C3.78594 17.3848 3.80383 18.2434 3.87538 19.102C3.96481 20.1573 4.44777 21.0517 5.2348 21.7851C5.66409 22.1786 6.14705 22.4827 6.64789 22.7689C9.45617 24.3608 12.2645 25.9528 15.0727 27.5447C15.4842 27.7773 15.9134 28.0098 16.307 28.2244ZM16.4322 21.0338C16.4679 20.837 16.5037 20.6939 16.5037 20.5508C16.5037 19.2272 16.5216 17.9035 16.5037 16.562C16.4858 15.4709 16.0923 14.4871 15.3411 13.6643C14.876 13.1456 14.3036 12.752 13.6954 12.4122C12.6043 11.804 11.5132 11.178 10.4221 10.5698C10.3684 10.534 10.2969 10.5161 10.2074 10.4625C10.1895 10.8202 10.1538 11.1243 10.1538 11.4463C10.1538 12.3049 10.1538 13.1634 10.1717 14.022C10.1717 14.6481 10.1717 15.292 10.3326 15.9002C10.6546 17.2238 11.4417 18.2255 12.6222 18.9231C13.7133 19.5671 14.8223 20.1752 15.9313 20.8013C16.0744 20.8907 16.2354 20.9444 16.4322 21.0338Z" fill="black"/>
<path d="M8.52637 3.54024C8.56214 3.52235 8.59792 3.50446 8.63369 3.48657C9.52805 3.00362 10.3866 2.48489 11.2989 2.03771C12.5868 1.39378 13.9104 1.39378 15.2341 1.9125C15.3772 1.96616 15.5024 2.03771 15.6455 2.10926C18.5611 3.73699 21.4588 5.36473 24.3744 6.99246C24.8395 7.26077 25.2688 7.56485 25.6265 7.95836C26.1989 8.6023 26.5209 9.37145 26.6282 10.2121C26.664 10.5341 26.6818 10.8561 26.6818 11.1781C26.6818 14.3083 26.6818 17.4386 26.6818 20.5688C26.6818 21.6599 26.3778 22.6437 25.6444 23.4844C25.3403 23.8422 25.0004 24.1462 24.589 24.3788C23.6768 24.9154 22.7646 25.4341 21.8344 25.9707C21.8165 25.9886 21.7808 25.9886 21.7629 26.0065C21.745 25.9886 21.745 25.9886 21.7271 25.9707C21.7629 25.8992 21.8165 25.8455 21.8523 25.774C22.532 24.8975 22.8719 23.9137 22.8719 22.8047C22.8719 19.5135 22.8898 16.2222 22.854 12.931C22.8361 11.2496 22.067 9.94384 20.6002 9.06737C19.1871 8.22667 17.7383 7.40386 16.3073 6.59894C14.8226 5.75824 13.3201 4.93543 11.8355 4.11262C10.8517 3.57601 9.79636 3.41502 8.68735 3.54024" fill="black"/>
<path d="M56.0965 24.8617H52.1967V22.3547H52.127C51.6395 23.26 50.9083 23.9912 49.9333 24.5483C48.9816 25.0823 48.0066 25.3492 47.0084 25.3492C44.6406 25.3492 42.9228 24.7689 41.855 23.6082C40.8104 22.4243 40.2881 20.6485 40.2881 18.2807V6.8596H44.2576V17.8977C44.2576 19.4762 44.5594 20.5904 45.1629 21.2404C45.7665 21.8904 46.6138 22.2154 47.7048 22.2154C48.5405 22.2154 49.2369 22.0877 49.7941 21.8324C50.3512 21.577 50.8038 21.2404 51.152 20.8226C51.5002 20.3815 51.744 19.8592 51.8833 19.2557C52.0457 18.6521 52.127 18.0021 52.127 17.3057V6.8596H56.0965V24.8617ZM60.2826 6.8596H64.0432V9.50596L64.1128 9.57559C64.7164 8.57743 65.5056 7.79975 66.4806 7.24264C67.4556 6.6623 68.535 6.37212 69.719 6.37212C71.692 6.37212 73.2472 6.88281 74.3848 7.90421C75.5222 8.92561 76.0911 10.4577 76.0911 12.5005V24.8617H72.1216V13.5451C72.075 12.1291 71.7733 11.1077 71.2161 10.4809C70.6592 9.83096 69.7886 9.50596 68.6047 9.50596C67.9315 9.50596 67.3279 9.63363 66.794 9.88897C66.2601 10.1211 65.8074 10.4577 65.436 10.8988C65.0646 11.3166 64.7744 11.8157 64.5655 12.396C64.3566 12.9764 64.2521 13.5916 64.2521 14.2415V24.8617H60.2826V6.8596ZM80.3815 0H84.351V3.7606H80.3815V0ZM80.3815 6.8596H84.351V24.8617H80.3815V6.8596ZM86.9004 6.8596H89.86V5.36234C89.86 4.22486 89.9993 3.30792 90.2778 2.61153C90.5566 1.89191 90.9278 1.34639 91.3922 0.97497C91.8565 0.580339 92.3788 0.324991 92.9592 0.208924C93.5625 0.0696412 94.1892 0 94.8395 0C96.1162 0 97.0446 0.0812478 97.625 0.243743V3.34275C97.3697 3.27312 97.091 3.22667 96.7893 3.20346C96.5108 3.15704 96.174 3.13383 95.7796 3.13383C95.2456 3.13383 94.7814 3.2615 94.3867 3.51685C94.0152 3.77222 93.8295 4.27128 93.8295 5.01413V6.8596H97.2071V9.81934H93.8295V24.8617H89.86V9.81934H86.9004V6.8596ZM97.6748 6.8596H102.027L106.728 20.3003H106.798L111.359 6.8596H115.503L108.504 25.8367C108.179 26.6492 107.854 27.4268 107.529 28.1697C107.227 28.9125 106.844 29.5625 106.38 30.1197C105.939 30.6998 105.382 31.1526 104.708 31.4777C104.035 31.8257 103.176 32 102.132 32C101.203 32 100.286 31.9302 99.3808 31.7911V28.4483C99.7059 28.4947 100.019 28.541 100.321 28.5874C100.623 28.6572 100.936 28.6919 101.261 28.6919C101.726 28.6919 102.109 28.6341 102.41 28.5179C102.712 28.4018 102.956 28.2277 103.141 27.9956C103.35 27.7866 103.525 27.5313 103.664 27.2295C103.803 26.9277 103.931 26.5795 104.047 26.1849L104.499 24.7921L97.6748 6.8596Z" fill="black"/>
</svg>